<svg width="120" height="120" viewBox="0 0 120 120" fill="none" xmlns="http://www.w3.org/2000/svg">
<circle cx="60" cy="60" r="58.5" stroke="black" stroke-width="3"/>
<path d="M60 33.75L37.5 48.75L60 63.75L82.5 48.75L60 33.75Z" fill="#8AE5C8" stroke="black" stroke-width="7.5" stroke-linejoin="round"/>
<path d="M60 33.75L82.5 48.75L91.875 35.625L71.25 22.5L60 33.75Z" stroke="black" stroke-width="7.5" stroke-linejoin="round"/>
<path d="M60 33.75L37.5 48.75L28.125 35.625L48.75 22.5L60 33.75Z" stroke="black" stroke-width="7.5" stroke-linejoin="round"/>
<path d="M95.625 56.25L82.5 48.75L60 63.75L73.125 73.125L95.625 56.25Z" stroke="black" stroke-width="7.5" stroke-linejoin="round"/>
<path d="M24.375 56.25L37.5 48.75L60 63.75L46.875 73.125L24.375 56.25Z" stroke="black" stroke-width="7.5" stroke-linejoin="round"/>
<path d="M82.5 67.5V84.375L60 97.5L37.5 84.375V67.5" stroke="black" stroke-width="7.5" stroke-linecap="round" stroke-linejoin="round"/>
</svg>
