<svg width="120" height="120" viewBox="0 0 120 120" fill="none" xmlns="http://www.w3.org/2000/svg">
<circle cx="60" cy="60" r="58.5" stroke="black" stroke-width="3"/>
<path d="M26.25 93.7499L42.5139 47.3699L73.125 78.8221L26.25 93.7499Z" fill="#CF1D6D" stroke="black" stroke-width="7.5" stroke-linejoin="round"/>
<path d="M58.125 50.625L67.5 41.25C72.5001 36.2499 73.125 31.875 69.375 28.125" stroke="black" stroke-width="7.5" stroke-linecap="round" stroke-linejoin="round"/>
<path d="M69.375 61.875L78.75 52.5C84.9999 46.25 91.2501 46.25 97.5 52.5" stroke="black" stroke-width="7.5" stroke-linecap="round" stroke-linejoin="round"/>
<path d="M52.5 28.125C54.5711 28.125 56.25 26.4461 56.25 24.375C56.25 22.3039 54.5711 20.625 52.5 20.625C50.4289 20.625 48.75 22.3039 48.75 24.375C48.75 26.4461 50.4289 28.125 52.5 28.125Z" fill="black"/>
<path d="M93.75 26.25C95.8211 26.25 97.5 24.5711 97.5 22.5C97.5 20.4289 95.8211 18.75 93.75 18.75C91.6789 18.75 90 20.4289 90 22.5C90 24.5711 91.6789 26.25 93.75 26.25Z" fill="black"/>
<path d="M93.75 69.375C95.8211 69.375 97.5 67.6961 97.5 65.625C97.5 63.5539 95.8211 61.875 93.75 61.875C91.6789 61.875 90 63.5539 90 65.625C90 67.6961 91.6789 69.375 93.75 69.375Z" fill="black"/>
<path d="M88.125 86.25C90.1961 86.25 91.875 84.5711 91.875 82.5C91.875 80.4289 90.1961 78.75 88.125 78.75C86.0539 78.75 84.375 80.4289 84.375 82.5C84.375 84.5711 86.0539 86.25 88.125 86.25Z" fill="black"/>
</svg>
