<svg width="120" height="120" viewBox="0 0 120 120" fill="none" xmlns="http://www.w3.org/2000/svg">
<circle cx="60" cy="60" r="58.5" stroke="black" stroke-width="3"/>
<path d="M60 48.75C67.2487 48.75 73.125 42.8737 73.125 35.625C73.125 28.3763 67.2487 22.5 60 22.5C52.7513 22.5 46.875 28.3763 46.875 35.625C46.875 42.8737 52.7513 48.75 60 48.75Z" fill="#9A2483" stroke="black" stroke-width="7.5" stroke-linecap="round" stroke-linejoin="round"/>
<path d="M22.5 91.875C22.5 75.3064 37.6104 61.875 56.25 61.875" stroke="black" stroke-width="7.5" stroke-linecap="round" stroke-linejoin="round"/>
<path d="M74.7188 67.5C70.7319 67.5 67.5 71.2661 67.5 75.912C67.5 84.3238 76.0312 91.9712 80.625 93.75C85.2188 91.9712 93.75 84.3238 93.75 75.912C93.75 71.2661 90.5181 67.5 86.5313 67.5C84.0898 67.5 81.9313 68.9124 80.625 71.0741C79.3187 68.9124 77.1602 67.5 74.7188 67.5Z" fill="#9A2483" stroke="black" stroke-width="7.5" stroke-linecap="round" stroke-linejoin="round"/>
</svg>
