<svg width="120" height="120" viewBox="0 0 120 120" fill="none" xmlns="http://www.w3.org/2000/svg">
<circle cx="60" cy="60" r="58.5" stroke="black" stroke-width="3"/>
<path d="M43.125 41.25C47.2671 41.25 50.625 37.8921 50.625 33.75C50.625 29.6079 47.2671 26.25 43.125 26.25C38.9829 26.25 35.625 29.6079 35.625 33.75C35.625 37.8921 38.9829 41.25 43.125 41.25Z" fill="#F3AA62" stroke="black" stroke-width="7.5" stroke-linecap="round" stroke-linejoin="round"/>
<path d="M76.875 41.25C81.0171 41.25 84.375 37.8921 84.375 33.75C84.375 29.6079 81.0171 26.25 76.875 26.25C72.7329 26.25 69.375 29.6079 69.375 33.75C69.375 37.8921 72.7329 41.25 76.875 41.25Z" fill="#F3AA62" stroke="black" stroke-width="7.5" stroke-linecap="round" stroke-linejoin="round"/>
<path d="M33.75 52.5H52.5L48.75 93.75H37.5L33.75 52.5Z" fill="#F3AA62" stroke="black" stroke-width="7.5" stroke-linecap="round" stroke-linejoin="round"/>
<path d="M67.5 52.5H86.25L82.5 93.75H71.25L67.5 52.5Z" fill="#F3AA62" stroke="black" stroke-width="7.5" stroke-linecap="round" stroke-linejoin="round"/>
</svg>
