<svg width="40" height="40" viewBox="0 0 40 40" fill="none" xmlns="http://www.w3.org/2000/svg">
<path d="M31.4999 14.5071C31.364 14.0223 31.0993 13.5834 30.7339 13.2371C30.3582 12.8801 29.8977 12.6247 29.3959 12.4951C27.5179 12.0001 19.9939 12.0001 19.9939 12.0001C16.8572 11.9644 13.7213 12.1214 10.6039 12.4701C10.1021 12.6093 9.64245 12.8704 9.26588 13.2301C8.89588 13.5861 8.62788 14.0251 8.48788 14.5061C8.15158 16.3178 7.98818 18.1574 7.99988 20.0001C7.98788 21.8411 8.15088 23.6801 8.48788 25.4941C8.62488 25.9731 8.89188 26.4101 9.26288 26.7631C9.63388 27.1161 10.0959 27.3711 10.6039 27.5061C12.5069 28.0001 19.9939 28.0001 19.9939 28.0001C23.1345 28.0358 26.2744 27.8789 29.3959 27.5301C29.8977 27.4004 30.3582 27.1451 30.7339 26.7881C31.0991 26.4418 31.3636 26.0029 31.4989 25.5181C31.844 23.707 32.0118 21.8667 31.9999 20.0231C32.0258 18.1717 31.8583 16.3226 31.4999 14.5061V14.5071ZM17.6019 23.4241V16.5771L23.8619 20.0011L17.6019 23.4241Z" fill="white"/>
</svg>
